<?xml version="1.0" encoding="UTF-8" standalone="no"?> <svg xmlns="http://www.w3.org/2000/svg" xmlns:xlink="http://www.w3.org/1999/xlink" viewBox="0 0 64 64"><defs><style>.cls-1{fill:url(#linear-gradient);}.cls-2{fill:#fff;}</style><linearGradient id="linear-gradient" x1="3.25" y1="32" x2="60.75" y2="32" gradientUnits="userSpaceOnUse"><stop offset="0" stop-color="#5bb4f6"/><stop offset="0.61" stop-color="#2191e5"/><stop offset="1" stop-color="#007edb"/></linearGradient></defs><g id="Layer_83" data-name="Layer 83"><circle class="cls-1" cx="32" cy="32" r="28.75"/><path class="cls-2" d="M35.63,52.75H26.5a.76.76,0,0,1-.75-.75V36.75H19.27a.76.76,0,0,1-.75-.75V27.83a.76.76,0,0,1,.75-.75h6.48V22.41A11.18,11.18,0,0,1,36.91,11.25h6.82a.76.76,0,0,1,.75.75v8a.75.75,0,0,1-.75.75h-4a3.91,3.91,0,0,0-3.9,3.91v2.52h8.86a.77.77,0,0,1,.59.29.74.74,0,0,1,.13.64l-2,8a.74.74,0,0,1-.72.57H36.38V52A.76.76,0,0,1,35.63,52.75Zm-8.38-1.5h7.63V36a.75.75,0,0,1,.75-.75h6.51l1.63-6.53H35.12a.75.75,0,0,1-.75-.75V24.7a5.41,5.41,0,0,1,5.4-5.41H43V12.75H36.91a9.67,9.67,0,0,0-9.66,9.66v5.42a.75.75,0,0,1-.75.75H20v6.67H26.5a.76.76,0,0,1,.75.75Z"/></g></svg>