<?xml version="1.0" encoding="UTF-8"?>
<!DOCTYPE svg PUBLIC "-//W3C//DTD SVG 1.1//EN" "http://www.w3.org/Graphics/SVG/1.1/DTD/svg11.dtd">
<!-- Creator: CorelDRAW -->
<svg xmlns="http://www.w3.org/2000/svg" xml:space="preserve" width="1.70666in" height="1.70666in" version="1.1" style="shape-rendering:geometricPrecision; text-rendering:geometricPrecision; image-rendering:optimizeQuality; fill-rule:evenodd; clip-rule:evenodd"
viewBox="0 0 1707 1707"
 xmlns:xlink="http://www.w3.org/1999/xlink">
 <defs>
  <style type="text/css">
   <![CDATA[
    .fil2 {fill:#6248B4}
    .fil0 {fill:#6D50C8}
    .fil1 {fill:#7959DE}
    .fil3 {fill:#99FFFF}
    .fil4 {fill:#FF3131}
    .fil5 {fill:white}
   ]]>
  </style>
 </defs>
 <g id="Layer_x0020_1">
  <metadata id="CorelCorpID_0Corel-Layer"/>
  <g id="_849625576">
   <path class="fil0" d="M1432 1671l-1158 0c-12,0 -23,-10 -23,-23l0 -166c0,-12 11,-22 23,-22l271 0 0 -235c0,-13 11,-23 23,-23l571 0c12,0 22,10 22,23l0 235 271 0c13,0 23,10 23,22l0 166c0,13 -10,23 -23,23z"/>
   <path class="fil1" d="M1684 1248l-1661 0c-13,0 -23,-11 -23,-23l0 -1166c0,-13 10,-23 23,-23l1661 0c12,0 23,10 23,23l0 1166c0,12 -11,23 -23,23z"/>
   <path class="fil2" d="M1584 1148l-1461 0c-13,0 -23,-11 -23,-23l0 -966c0,-13 10,-23 23,-23l1461 0c12,0 22,10 22,23l0 966c0,12 -10,23 -22,23z"/>
   <polygon class="fil3" points="1573,1114 1573,169 134,169 134,1114 "/>
  </g>
  <path class="fil4" d="M1054 932l-402 0c-160,0 -290,-130 -290,-290 0,-161 130,-291 290,-291l402 0c161,0 291,130 291,291 0,160 -130,290 -291,290z"/>
  <path class="fil5" d="M772 835c-4,0 -7,-1 -10,-2 -8,-4 -13,-12 -13,-21l0 -341c0,-9 5,-17 13,-20 8,-4 17,-3 24,3l204 170c5,5 8,11 8,18 0,6 -3,13 -8,17l-204 171c-4,3 -9,5 -14,5z"/>
 </g>
</svg>
